PathFileType	4	(X/Y/Z)	C:/Users/opensim2020/Desktop/walking_exp_matlab/subject03_walking04_straight_03.trc	
DataRate	CameraRate	NumFrames	NumMarkers	Units	OrigDataRate	OrigDataStartFrame	OrigNumFrames	
100.00	100.00	5	51	mm	100.00	2309	256	
Frame#	Time	LFHD			RFHD			LBHD			RBHD			C7			T10			CLAV			STRN			RBAK			LSHO			LUPA			LELB			LFRM			LWRA			LWRB			LFIN			RSHO			RUPA			RELB			RFRM			RWRA			RWRB			RFIN			LASI			RASI			LPSI			RPSI			LTHI			LKNE			LTIB			LANK			LHEE			LTOE			RTHI			RKNE			RTIB			RANK			RHEE			RTOE			*39			*40			*41			*42			*43			*44			*45			*46			*47			*48			*49			*50			
		X1	Y1	Z1	X2	Y2	Z2	X3	Y3	Z3	X4	Y4	Z4	X5	Y5	Z5	X6	Y6	Z6	X7	Y7	Z7	X8	Y8	Z8	X9	Y9	Z9	X10	Y10	Z10	X11	Y11	Z11	X12	Y12	Z12	X13	Y13	Z13	X14	Y14	Z14	X15	Y15	Z15	X16	Y16	Z16	X17	Y17	Z17	X18	Y18	Z18	X19	Y19	Z19	X20	Y20	Z20	X21	Y21	Z21	X22	Y22	Z22	X23	Y23	Z23	X24	Y24	Z24	X25	Y25	Z25	X26	Y26	Z26	X27	Y27	Z27	X28	Y28	Z28	X29	Y29	Z29	X30	Y30	Z30	X31	Y31	Z31	X32	Y32	Z32	X33	Y33	Z33	X34	Y34	Z34	X35	Y35	Z35	X36	Y36	Z36	X37	Y37	Z37	X38	Y38	Z38	X39	Y39	Z39	X40	Y40	Z40	X41	Y41	Z41	X42	Y42	Z42	X43	Y43	Z43	X44	Y44	Z44	X45	Y45	Z45	X46	Y46	Z46	X47	Y47	Z47	X48	Y48	Z48	X49	Y49	Z49	X50	Y50	Z50	X51	Y51	Z51	

65	0.640	-1229.23096	-604.66016	1621.53162	-1096.37598	-621.56573	1622.25342	-1241.97839	-726.31976	1563.82922	-1110.77893	-738.70349	1564.65735	-1176.86938	-754.55066	1413.35168	-1175.07568	-796.70337	1102.14307	-1177.61121	-634.78357	1333.79761	-1180.62415	-596.03931	1167.34875	-1073.48193	-808.13568	1243.50085	-1333.11804	-685.18073	1371.00537	-1408.38062	-716.84491	1176.71143	-1427.05664	-722.34253	1055.20215	-1435.04431	-700.82721	927.08264	-1412.25964	-680.52533	807.57916	-1458.59204	-710.67499	815.16467	-1455.62573	-691.72369	732.88019	-1018.15131	-672.68298	1362.67480	-937.41321	-631.06567	1149.49658	-923.14160	-586.18140	1046.70264	-924.37836	-527.93262	923.21692	-964.89624	-472.56775	842.88312	-918.46393	-495.34842	828.29053	-930.56946	-450.42407	770.68652	-1289.27100	-626.44708	936.77295	-1052.93152	-637.05243	932.26001	-1249.95679	-791.29224	956.25226	-1099.59314	-795.06921	967.46960	-1344.58728	-596.65057	645.89404	-1310.83557	-532.32861	480.25821	-1314.07666	-586.74152	289.25946	-1276.41101	-615.67706	81.08614	-1238.64307	-658.69910	47.07782	-1253.19507	-474.62357	38.88421	-1028.04651	-721.79828	639.68640	-1068.71423	-733.57660	461.26535	-1072.89490	-804.96466	282.91318	-1130.41992	-860.87653	75.00958	-1182.51807	-906.31598	47.87923	-1141.35413	-720.92578	30.04392	-1187.69080	-699.40387	1671.59058																																	 
66	0.650	-1229.91748	-595.70831	1620.62207	-1097.19092	-612.63568	1621.68774	-1242.66370	-717.28564	1562.79468	-1111.44263	-729.70428	1563.89209	-1177.23975	-745.38013	1412.65881	-1175.90210	-788.03461	1101.58667	-1177.83984	-625.74573	1332.85608	-1180.60571	-587.33795	1166.30151	-1073.92444	-799.48486	1243.03748	-1333.34546	-676.00653	1370.02942	-1408.46204	-709.20178	1175.97095	-1427.05774	-715.56506	1054.48682	-1434.99023	-694.63599	926.24872	-1412.73340	-673.89404	807.41284	-1457.94360	-705.02960	814.04883	-1455.19336	-686.57562	731.88940	-1018.59332	-663.66138	1361.85120	-937.71362	-621.20459	1149.02075	-923.66315	-575.46875	1046.62476	-925.74011	-515.72363	923.81952	-966.50195	-459.77051	844.30847	-920.00934	-482.12643	829.29620	-932.58392	-436.70807	772.19525	-1289.43335	-617.28705	935.81134	-1053.39380	-628.65021	931.48151	-1250.76013	-782.41656	955.45422	-1100.41492	-786.81158	966.78369	-1344.47192	-589.09845	644.33875	-1309.82813	-523.88812	478.81046	-1312.89209	-569.21136	286.91974	-1274.80664	-587.40253	77.41466	-1237.96277	-629.03534	42.08576	-1250.05457	-444.61139	39.35149	-1028.17773	-716.25232	639.49591	-1068.65161	-729.77106	461.17511	-1072.87451	-802.92389	283.47849	-1130.34546	-860.55231	75.89992	-1182.45288	-906.11127	49.08074	-1141.18872	-720.83582	29.98768																																				 
67	0.660	-1230.65820	-586.71875	1619.65381	-1097.88916	-603.72821	1621.00488	-1243.33691	-708.24103	1561.68030	-1112.08582	-720.72363	1563.12195	-1177.64441	-736.15253	1411.90308	-1176.77905	-779.19977	1100.91382	-1178.05615	-616.65308	1331.87817	-1180.63721	-578.52307	1165.22583	-1074.46289	-790.73633	1242.47656	-1333.81702	-666.74274	1369.20911	-1408.60486	-701.46436	1175.29114	-1426.99463	-708.62335	1053.68030	-1434.84045	-688.24475	925.39148	-1412.65894	-667.39191	806.81732	-1457.50134	-699.19000	813.18756	-1454.62036	-681.23102	730.77289	-1018.86298	-654.67023	1360.95715	-938.02917	-611.45795	1148.41223	-924.23688	-564.89496	1046.38977	-926.74786	-503.93512	924.29291	-968.39600	-447.37918	845.50970	-921.69672	-469.12881	830.11804	-934.74146	-423.05884	773.83179	-1289.54456	-608.13281	934.63159	-1053.03918	-621.24310	930.60608	-1251.57483	-773.53015	954.68958	-1101.26331	-778.53180	966.09271	-1344.47327	-582.09943	642.46777	-1308.95972	-514.91974	478.44312	-1311.61145	-552.47888	284.78009	-1273.53796	-560.19287	74.38631	-1235.78381	-600.14636	38.43519	-1246.87671	-415.50708	39.97388	-1027.97778	-710.56049	639.29492	-1068.55713	-725.73663	461.08630	-1072.85608	-800.66589	283.98798	-1129.93140	-860.33649	77.00123	-1182.40417	-905.69733	50.20042	-1140.92957	-720.71503	29.97631																																				 
68	0.670	-1231.42896	-577.67828	1618.67114	-1098.68848	-594.79614	1620.35217	-1244.01575	-699.18738	1560.49878	-1112.75208	-711.65210	1562.21741	-1178.12000	-726.86499	1411.12268	-1177.69446	-770.27722	1100.11694	-1178.34534	-607.42670	1330.87732	-1180.86292	-569.53302	1164.17810	-1075.07849	-781.95496	1241.88867	-1334.22510	-657.30792	1368.26514	-1408.65369	-693.55756	1174.40039	-1426.90967	-701.43011	1052.83057	-1434.65747	-681.55750	924.41602	-1411.96704	-661.67035	805.44086	-1457.10327	-693.11505	812.25714	-1454.00525	-675.92279	729.72675	-1019.28259	-645.48529	1359.98987	-938.44214	-601.74939	1147.70068	-924.87683	-554.47864	1046.02563	-928.30695	-492.24734	924.58087	-970.32776	-435.28671	846.43427	-923.50433	-456.57803	830.76624	-936.92542	-409.86792	774.99573	-1289.66357	-598.92517	933.42474	-1053.19250	-613.17395	929.71918	-1252.42627	-764.38269	953.75500	-1102.17432	-770.16290	965.40338	-1344.63599	-575.19958	640.47095	-1307.86353	-507.66309	476.33585	-1310.17993	-536.77515	282.83923	-1272.26086	-533.44580	72.29107	-1234.15283	-572.12970	35.60745	-1243.94604	-387.59940	41.24427	-1027.95325	-704.65021	639.05798	-1068.40967	-721.37958	460.95154	-1072.72791	-798.25311	284.60352	-1129.77271	-859.94348	77.99848	-1182.35974	-905.55292	51.72295	-1141.03406	-720.69189	29.86518	-1190.32837	-672.45691	1669.05249																																	 
69	0.680	-1232.18225	-568.61176	1617.66809	-1099.51172	-585.75549	1619.60303	-1244.65564	-690.01813	1559.24243	-1113.43848	-702.53284	1561.25256	-1178.62903	-717.45929	1410.25964	-1178.62231	-761.29767	1099.33826	-1178.57385	-598.24310	1329.81958	-1180.86536	-560.59943	1163.09290	-1075.71753	-773.12482	1241.18921	-1334.64087	-647.70514	1367.21313	-1408.68262	-685.37421	1173.55774	-1426.78809	-693.82697	1051.90271	-1434.41248	-674.60065	923.37659	-1411.56384	-655.27484	804.27759	-1456.76453	-686.72736	811.47937	-1453.32715	-670.32483	728.54517	-1019.70178	-636.44220	1359.02332	-938.86987	-592.09064	1146.91675	-925.55664	-544.24207	1045.49561	-929.69836	-480.99762	924.62073	-972.36420	-423.54968	847.14221	-925.35358	-444.32678	831.20056	-939.23370	-397.09344	775.98431	-1289.92676	-589.54517	932.23981	-1053.41406	-604.94232	928.84088	-1253.32324	-755.17230	952.87793	-1103.10510	-761.70435	964.72119	-1345.09509	-568.31763	638.40015	-1306.94641	-499.66776	475.45050	-1308.58887	-521.91559	281.03729	-1270.78125	-508.04443	70.75378	-1232.60974	-545.11456	33.42950	-1241.53979	-360.85629	43.47252	-1028.02698	-698.46600	638.70404	-1068.28992	-716.71851	460.73227	-1072.65576	-795.56183	285.15036	-1129.79456	-859.29913	78.97677	-1182.28516	-905.14984	53.19869	-1140.89795	-720.54602	29.78172	-1190.64819	-664.13422	1666.81177																																	 
